<?xml version="1.0" encoding="UTF-8" standalone="no"?>
<!-- Created with Inkscape (http://www.inkscape.org/) -->

<svg
   version="1.1"
   id="svg2"
   width="586.5733"
   height="582.25336"
   viewBox="0 0 586.5733 582.25336"
   sodipodi:docname="5939614[1].eps"
   xmlns:inkscape="http://www.inkscape.org/namespaces/inkscape"
   xmlns:sodipodi="http://sodipodi.sourceforge.net/DTD/sodipodi-0.dtd"
   xmlns="http://www.w3.org/2000/svg"
   xmlns:svg="http://www.w3.org/2000/svg">
  <defs
     id="defs6" />
  <sodipodi:namedview
     id="namedview4"
     pagecolor="#ffffff"
     bordercolor="#000000"
     borderopacity="0.25"
     inkscape:showpageshadow="2"
     inkscape:pageopacity="0.0"
     inkscape:pagecheckerboard="0"
     inkscape:deskcolor="#d1d1d1" />
  <g
     id="g8"
     inkscape:groupmode="layer"
     inkscape:label="ink_ext_XXXXXX"
     transform="matrix(1.3333333,0,0,-1.3333333,0,582.25333)">
    <g
       id="g10"
       transform="scale(0.1)">
      <path
         d="m 3156.79,4116.32 c -17.67,-14.23 -35.92,-29.19 -54.62,-44.74 -6.09,-5.06 -13.73,-7.82 -21.64,-7.73 -168.2,1.95 -379.69,-5.17 -388.44,-27.14 0,0 -1,-158.16 5.5,-308.69 0.42,-9.76 -3.48,-19.22 -10.64,-25.87 -14.17,-13.17 -27.87,-25.95 -40.99,-38.22 -20.71,-19.35 -54.54,-5.67 -56.01,22.63 -10.94,212.48 -9.39,453.16 -9.39,453.16 12.4,31.03 326.11,39.91 555.94,35.82 31.14,-0.56 44.54,-39.69 20.29,-59.22"
         style="fill:#8ad6aa;fill-opacity:1;fill-rule:nonzero;stroke:none"
         id="path12" />
      <path
         d="m 3231.1,3561.91 c -17.92,-29.9 -289.8,-31.82 -507.83,-23.16 -30.99,1.23 -43.66,40.25 -19.3,59.45 12.7,10 25.53,20.35 38.47,31 6.29,5.18 14.21,7.92 22.35,7.62 160.16,-5.84 352.13,-3.97 365.12,17.75 11.48,19.13 9.62,181.3 1.04,330.82 -0.52,8.99 2.67,17.8 8.77,24.43 11.52,12.57 22.7,24.95 33.49,37.07 19.7,22.11 56.27,9.44 58.08,-20.11 12.54,-205.98 15.8,-438.35 -0.19,-464.87"
         style="fill:#8ad6aa;fill-opacity:1;fill-rule:nonzero;stroke:none"
         id="path14" />
      <path
         d="m 2751.79,3991.54 c 0,0 -1.8,-279.34 23.27,-288.29 25.07,-8.95 279.34,-17.91 290.09,0 10.74,17.91 -1.8,286.5 -16.13,295.46 -14.31,8.95 -290.07,10.74 -297.23,-7.17 z"
         style="fill:none;stroke:#2b3239;stroke-width:20;stroke-linecap:round;stroke-linejoin:miter;stroke-miterlimit:10;stroke-dasharray:none;stroke-opacity:1"
         id="path16" />
      <path
         d="m 2340.29,4344.36 c 0,0 -1.12,-174.73 14.56,-180.34 15.69,-5.59 174.74,-11.2 181.46,0 6.72,11.21 -1.12,179.22 -10.08,184.82 -8.96,5.61 -181.46,6.72 -185.94,-4.48"
         style="fill:#feef1d;fill-opacity:1;fill-rule:nonzero;stroke:none"
         id="path18" />
      <path
         d="m 3614.92,1683.68 c 0,0 -108.13,-175.38 -51.72,-262.36 56.43,-86.98 204.52,166.91 195.12,258.59 -9.4,91.68 -89.37,80.04 -143.4,3.77"
         style="fill:#8ad6aa;fill-opacity:1;fill-rule:nonzero;stroke:none"
         id="path20" />
      <path
         d="m 4050.89,2067.12 c 0,0 -168.68,-273.57 -80.68,-409.24 88.01,-135.68 319.02,260.34 304.35,403.35 -14.66,143 -139.4,124.86 -223.67,5.89"
         style="fill:#f9b5de;fill-opacity:1;fill-rule:nonzero;stroke:none"
         id="path22" />
      <path
         d="m 4227.22,1869.28 c -51.3,69.37 -135.23,106.47 -221.17,98.9 -115.98,-10.21 -293,-40.14 -426.67,-126.84 -216.63,-140.51 479.28,-561.24 707.62,-537.82 187.35,19.21 87.15,367.13 -59.78,565.76 z"
         style="fill:none;stroke:#2b3239;stroke-width:20;stroke-linecap:round;stroke-linejoin:miter;stroke-miterlimit:10;stroke-dasharray:none;stroke-opacity:1"
         id="path24" />
      <path
         d="m 4085.9,1427.8 c 0,0 -108.15,-175.38 -51.72,-262.35 56.42,-86.99 204.51,166.9 195.11,258.58 -9.41,91.68 -89.37,80.04 -143.39,3.77"
         style="fill:#feef1d;fill-opacity:1;fill-rule:nonzero;stroke:none"
         id="path26" />
      <path
         d="m 3886.43,3528.36 c -20.77,-19.28 -43.11,-37.18 -66.95,-53.48 -0.23,-0.17 -0.47,-0.32 -0.7,-0.49 -37.04,-25.33 -88,-13.05 -111,25.49 l -4.46,7.47 c -21.94,36.77 -9.99,83.51 25.73,107.11 0.23,0.15 0.46,0.3 0.69,0.45 135.36,89.87 189.53,308.93 113,500.17 -21.21,52.8 4.56,112.67 57.25,133.77 52.8,21.09 112.67,-4.56 133.89,-57.25 92.82,-232.29 30.33,-498.23 -147.45,-663.24"
         style="fill:#f9b5de;fill-opacity:1;fill-rule:nonzero;stroke:none"
         id="path28" />
      <path
         d="m 3915.96,3991.56 c 23.28,-25.08 21.81,-64.27 -3.26,-87.56 -25.07,-23.28 -64.28,-21.82 -87.56,3.26 -23.28,25.08 -21.82,64.28 3.26,87.56 25.07,23.28 64.28,21.82 87.56,-3.26"
         style="fill:#8ad6aa;fill-opacity:1;fill-rule:nonzero;stroke:none"
         id="path30" />
      <path
         d="m 3869.66,3786.8 c 23.28,-25.08 21.82,-64.28 -3.25,-87.56 -25.08,-23.28 -64.28,-21.83 -87.56,3.25 -23.28,25.08 -21.83,64.28 3.25,87.56 25.08,23.28 64.28,21.83 87.56,-3.25"
         style="fill:#8ad6aa;fill-opacity:1;fill-rule:nonzero;stroke:none"
         id="path32" />
      <path
         d="m 4249.08,4067.38 c 53.04,-57.13 49.72,-146.43 -7.41,-199.46 -57.13,-53.04 -146.43,-49.72 -199.46,7.41 -53.03,57.13 -49.71,146.42 7.41,199.46 57.13,53.03 146.43,49.71 199.46,-7.41 z"
         style="fill:none;stroke:#2b3239;stroke-width:20;stroke-linecap:round;stroke-linejoin:miter;stroke-miterlimit:10;stroke-dasharray:none;stroke-opacity:1"
         id="path34" />
      <path
         d="m 633.469,2805.64 c 5.535,29.04 6.187,58.53 2.703,87.21 -3.82,28.55 -12.285,56.12 -25.227,81.14 -25.593,50.13 -71.425,88.66 -124.59,102.42 -52.957,13.87 -111.05,3.43 -154.324,-27.69 -43.562,-30.91 -71.886,-80.02 -79.597,-133.3 -6.504,-44.91 -48.176,-76.04 -93.079,-69.54 -44.902,6.5 -76.0347,48.17 -69.5425,93.07 1.6016,11.04 5.3242,21.24 10.6955,30.25 l 3.269,5.41 c 21.328,35.42 45.664,68.87 74.719,97.93 28.856,29.15 62.266,53.67 98.606,71.85 72.918,36.21 157.898,44.1 234.324,22.04 76.648,-22.2 142.051,-73.44 187.312,-136.78 22.856,-31.64 41.575,-66.03 56.672,-101.8 14.934,-35.83 26.309,-72.75 37.625,-110.5 l 1.028,-3.43 c 13.144,-43.79 -11.711,-89.93 -55.5,-103.07 -43.79,-13.13 -89.93,11.71 -103.067,55.5 -3.926,13.08 -4.375,26.74 -2.027,39.29"
         style="fill:#f9b5de;fill-opacity:1;fill-rule:nonzero;stroke:none"
         id="path36" />
      <path
         d="m 771.531,2508.7 c -140.586,0 -254.539,113.96 -254.539,254.54 0,140.58 113.953,254.54 254.539,254.54"
         style="fill:none;stroke:#2b3239;stroke-width:20;stroke-linecap:round;stroke-linejoin:miter;stroke-miterlimit:10;stroke-dasharray:none;stroke-opacity:1"
         id="path38" />
      <path
         d="m 101.516,3142.87 c 0,-28.03 -22.7269,-50.75 -50.7543,-50.75 -28.039,0 -50.7617,22.72 -50.7617,50.75 0,28.03 22.7227,50.76 50.7617,50.76 28.0274,0 50.7543,-22.73 50.7543,-50.76"
         style="fill:#feef1d;fill-opacity:1;fill-rule:nonzero;stroke:none"
         id="path40" />
      <path
         d="m 479.922,2935.02 c 0,-28.04 -22.727,-50.76 -50.75,-50.76 -28.039,0 -50.766,22.72 -50.766,50.76 0,28.03 22.727,50.75 50.766,50.75 28.023,0 50.75,-22.72 50.75,-50.75"
         style="fill:#8ad6aa;fill-opacity:1;fill-rule:nonzero;stroke:none"
         id="path42" />
      <path
         d="m 2902.99,3158.91 c 0,0 -142.61,-430.79 -69.52,-468.63 73.07,-37.83 571.69,-97.95 527.9,-14.34 -43.79,83.62 -390.39,556.62 -458.38,482.97"
         style="fill:#feef1d;fill-opacity:1;fill-rule:nonzero;stroke:none"
         id="path44" />
      <path
         d="m 2732.99,3191.62 c 0,0 -279.32,-120.9 -279.34,-167.97 -0.01,-47.07 231.72,-311.96 262.69,-267.74 30.97,44.22 71.93,420.53 16.65,435.71 z"
         style="fill:none;stroke:#2b3239;stroke-width:20;stroke-linecap:round;stroke-linejoin:miter;stroke-miterlimit:10;stroke-dasharray:none;stroke-opacity:1"
         id="path46" />
      <path
         d="m 3088.3,2775.46 c 0,0 -100.38,155.85 -117.42,140.31 -17.03,-15.55 -115.71,-164.09 -90.22,-171.12 35.02,-9.63 220.41,5.8 207.64,30.81"
         style="fill:#ffffff;fill-opacity:1;fill-rule:nonzero;stroke:none"
         id="path48" />
      <path
         d="m 2877.83,2460.22 c 0,0 -118.21,217.51 -135.24,201.96 -17.04,-15.54 -178.81,-120.82 -162.93,-141.98 42.34,-56.45 310.95,-85 298.17,-59.98"
         style="fill:#8ad6aa;fill-opacity:1;fill-rule:nonzero;stroke:none"
         id="path50" />
      <path
         d="m 1985.49,1770.88 c 95.14,-194.58 14.54,-429.44 -180.04,-524.59 -194.58,-95.14 -446.64,-14.49 -541.79,180.09 -95.14,194.58 50.57,351.49 245.15,446.62 194.58,95.15 381.53,92.46 476.68,-102.12"
         style="fill:#f9b5de;fill-opacity:1;fill-rule:nonzero;stroke:none"
         id="path52" />
      <path
         d="m 2196.36,1763.87 c 0,-216.6 -175.59,-392.18 -392.19,-392.18 -216.6,0 -407.61,183.17 -407.61,399.77 0,216.59 199.83,293.55 416.43,293.55 216.59,0 383.37,-84.55 383.37,-301.14 z"
         style="fill:none;stroke:#2b3239;stroke-width:20;stroke-linecap:round;stroke-linejoin:miter;stroke-miterlimit:10;stroke-dasharray:none;stroke-opacity:1"
         id="path54" />
      <path
         d="m 1200.67,1423.13 c -45.38,38.62 -53.48,103.62 -18.11,145.19 35.37,41.57 104.95,45.56 150.33,6.94 45.37,-38.62 28.86,-90.68 -6.51,-132.26 -35.38,-41.56 -80.33,-58.49 -125.71,-19.87 z"
         style="fill:none;stroke:#2b3239;stroke-width:20;stroke-linecap:round;stroke-linejoin:miter;stroke-miterlimit:10;stroke-dasharray:none;stroke-opacity:1"
         id="path56" />
      <path
         d="m 153.098,3466.68 c 92.703,-10.7 77.625,340.88 303.113,517.28 199.266,209.8 546.759,222.85 509.102,269.86 -5.879,17.35 -107.317,54.69 -236.934,31.47 -129.57,-19.05 -287.324,-98.67 -404.746,-219.24 -119.485,-118.4 -198.684,-277.8 -218.945,-406.88 -24.4536,-128.92 9.179,-190.71 48.41,-192.49"
         style="fill:#8ad6aa;fill-opacity:1;fill-rule:nonzero;stroke:none"
         id="path58" />
      <path
         d="m 31.9219,3765.73 c 17.9297,-1.37 86.3591,250.57 243.4691,378.48 141.355,148.91 371.394,173.81 348.73,203.34 -3.066,11.27 -68.308,31.39 -154.973,9.89 -86.433,-18.73 -194.304,-79.07 -277.46,-164.79 C 107.266,4108.28 47.5391,3998.5 28.1328,3911.66 5.97656,3824.71 24.1289,3760.7 31.9219,3765.73"
         style="fill:#f9b5de;fill-opacity:1;fill-rule:nonzero;stroke:none"
         id="path60" />
      <path
         d="m 374.148,3650.34 c -0.164,0.71 -0.156,3.28 -0.007,7.43 7.343,206.32 184.687,365.36 390.73,352.44 l 26.856,-1.68"
         style="fill:none;stroke:#2b3239;stroke-width:20;stroke-linecap:round;stroke-linejoin:miter;stroke-miterlimit:10;stroke-dasharray:none;stroke-opacity:1"
         id="path62" />
      <path
         d="m 1581.22,3622.03 c -168.3,0 -373.6,159.3 -373.6,326.4 0,167.1 230,356.2 398.3,356.2 168.41,0 287,-148.2 287,-315.3 0,-167.2 -143.3,-367.3 -311.7,-367.3 z m 2,743.1 c -216.6,0 -430.6,-184.4 -430.6,-401 0,-216.61 191,-399.8 407.6,-399.8 216.61,0 414.5,157.2 414.5,373.8 0,216.6 -174.9,427 -391.5,427"
         style="fill:#f9b5de;fill-opacity:1;fill-rule:nonzero;stroke:none"
         id="path64" />
      <path
         d="m 1730.71,4167.34 c 0,-56.62 -46.39,-102.5 -103.62,-102.5 -57.23,0 -103.62,45.88 -103.62,102.5 0,56.61 48.48,88.78 105.71,88.78 57.23,0 101.53,-32.17 101.53,-88.78"
         style="fill:#8ad6aa;fill-opacity:1;fill-rule:nonzero;stroke:none"
         id="path66" />
      <path
         d="m 1498.13,4061.48 c 66.91,-85.06 96.47,-304.48 43.75,-345.95 -52.74,-41.48 -161.02,36.02 -227.92,121.09 -66.92,85.08 -53,132.12 -14.39,186.97 45.17,64.19 131.65,122.97 198.56,37.89"
         style="fill:#feef1d;fill-opacity:1;fill-rule:nonzero;stroke:none"
         id="path68" />
      <path
         d="m 1787.71,3913.55 c -6.57,-38.22 -47.91,-109.62 -85.4,-103.16 -37.49,6.45 -56.95,88.31 -50.37,126.52 6.58,38.22 42.2,53.26 79.69,46.81 37.49,-6.46 62.67,-31.96 56.08,-70.17 z"
         style="fill:none;stroke:#2b3239;stroke-width:20;stroke-linecap:round;stroke-linejoin:miter;stroke-miterlimit:10;stroke-dasharray:none;stroke-opacity:1"
         id="path70" />
      <path
         d="m 4363.63,2952.03 c 0,-90.98 -73.76,-164.75 -164.75,-164.75 -90.99,0 -164.75,73.77 -164.75,164.75 0,90.99 73.76,164.75 164.75,164.75 90.99,0 164.75,-73.76 164.75,-164.75"
         style="fill:#feef1d;fill-opacity:1;fill-rule:nonzero;stroke:none"
         id="path72" />
      <path
         d="m 3835.78,2620.62 c 0,-55.46 -44.96,-100.42 -100.42,-100.42 -55.46,0 -100.42,44.96 -100.42,100.42 0,55.46 44.96,100.42 100.42,100.42 55.46,0 100.42,-44.96 100.42,-100.42"
         style="fill:#8ad6aa;fill-opacity:1;fill-rule:nonzero;stroke:none"
         id="path74" />
      <path
         d="m 4019.08,2783.2 c 0,-39.69 -32.18,-71.87 -71.87,-71.87 -39.7,0 -71.88,32.18 -71.88,71.87 0,39.7 32.18,71.87 71.88,71.87 39.69,0 71.87,-32.17 71.87,-71.87"
         style="fill:#8ad6aa;fill-opacity:1;fill-rule:nonzero;stroke:none"
         id="path76" />
      <path
         d="m 4273.41,2955.09 c 0,-39.69 -32.18,-71.87 -71.88,-71.87 -39.69,0 -71.87,32.18 -71.87,71.87 0,39.7 32.18,71.87 71.87,71.87 39.7,0 71.88,-32.17 71.88,-71.87"
         style="fill:#8ad6aa;fill-opacity:1;fill-rule:nonzero;stroke:none"
         id="path78" />
      <path
         d="m 3494.36,2424.5 364.48,290.96 c 48.37,38.61 98.77,74.44 151.02,107.41 101.34,63.94 278.49,179.02 355.87,249.35"
         style="fill:none;stroke:#2b3239;stroke-width:20;stroke-linecap:round;stroke-linejoin:miter;stroke-miterlimit:10;stroke-dasharray:none;stroke-opacity:1"
         id="path80" />
      <path
         d="M 1744.86,184.18 V 861.5 c 0,27.91 22.38,50.699 50.29,51.281 79.61,1.66 149.23,2.02 190.11,2.098 27.31,0 50.6,-19.699 55.1,-46.699 26.6,-158.989 20.61,-668.098 1.41,-698.801 -8.69,-13.77 -113.47,-26.918 -241.79,-36.359 -29.74,-2.18 -55.12,21.339 -55.12,51.16"
         style="fill:#8ad6aa;fill-opacity:1;fill-rule:nonzero;stroke:none"
         id="path82" />
      <path
         d="m 1906.71,54.6289 h -334.06 c -13.77,0 -25.01,16.5899 -25.3,37.2734 -0.82,58.9887 -0.99,110.5977 -1.03,140.8867 0,20.231 9.72,37.5 23.03,40.832 78.42,19.719 329.52,15.27 344.66,1.039 6.79,-6.43 13.28,-84.09 17.93,-179.1912 1.09,-22.0274 -10.52,-40.8399 -25.23,-40.8399"
         style="fill:#feef1d;fill-opacity:1;fill-rule:nonzero;stroke:none"
         id="path84" />
      <path
         d="m 1881.98,417.402 h -501.96 c -20.68,0 -37.57,16.578 -38,37.258 -1.23,59 -1.49,110.602 -1.56,140.891 0,20.238 14.6,37.5 34.61,40.828 117.83,19.723 495.12,15.281 517.87,1.051 10.2,-6.438 19.96,-84.09 26.95,-179.188 1.61,-22.031 -15.82,-40.84 -37.91,-40.84 z"
         style="fill:none;stroke:#2b3239;stroke-width:20;stroke-linecap:round;stroke-linejoin:miter;stroke-miterlimit:10;stroke-dasharray:none;stroke-opacity:1"
         id="path86" />
      <path
         d="m 698.309,896.602 c 0,0 -357.332,-193.723 -327.176,-236.782 30.156,-43.05 443.437,-232.5 443.437,-172.199 0,60.27 -55.996,430.5 -116.261,408.981"
         style="fill:#f9b5de;fill-opacity:1;fill-rule:nonzero;stroke:none"
         id="path88" />
      <path
         d="m 582.324,642.301 c 0,0 -357.344,-193.719 -327.187,-236.781 30.156,-43.04 443.437,-232.508 443.437,-172.188 0,60.258 -55.996,430.488 -116.25,408.969"
         style="fill:#feef1d;fill-opacity:1;fill-rule:nonzero;stroke:none"
         id="path90" />
      <path
         d="m 205.676,188.219 c 5.418,5.41 270.711,233.019 308.406,229.59 37.695,-3.43 23.984,-411.20744 -3.43,-407.7777 -27.41,3.4179 -332.39,150.7697 -304.976,178.1877 z"
         style="fill:none;stroke:#2b3239;stroke-width:20;stroke-linecap:round;stroke-linejoin:miter;stroke-miterlimit:10;stroke-dasharray:none;stroke-opacity:1"
         id="path92" />
      <path
         d="m 1590.07,3142 c -175.17,-1.91 -314.15,-147.93 -308.02,-323 5.63,-160.35 18.3,-328.67 46.69,-338.81 23.81,-8.5 146.38,-9.64 277.66,-8.19 199.29,2.19 357.99,167.78 350.93,366.96 -5.12,144.63 -13.73,279.94 -28.03,288.89 -15.96,9.97 -179.81,15.89 -339.23,14.15"
         style="fill:#feef1d;fill-opacity:1;fill-rule:nonzero;stroke:none"
         id="path94" />
      <path
         d="m 1220.16,2679.65 c 0,0 155.36,13.97 180.6,-11.27 25.24,-25.23 28.84,-129.79 10.81,-137 -18.03,-7.21 -189.94,-23.43 -204.36,19.84 -14.43,43.26 -1.47,124.83 12.95,128.43"
         style="fill:#8ad6aa;fill-opacity:1;fill-rule:nonzero;stroke:none"
         id="path96" />
      <path
         d="m 1850.51,2965.85 c 0,0 155.36,13.96 180.59,-11.27 25.25,-25.24 28.85,-129.79 10.82,-137.01 -18.02,-7.2 -189.95,-23.42 -204.36,19.84 -14.43,43.26 -1.48,124.83 12.95,128.44"
         style="fill:#f9b5de;fill-opacity:1;fill-rule:nonzero;stroke:none"
         id="path98" />
      <path
         d="m 1682.52,3182.38 c 0,0 292.7,13.97 340.24,-11.27 47.55,-25.24 54.34,-129.79 20.38,-137 -33.96,-7.2 -357.85,-23.43 -385.01,19.84 -27.17,43.26 -2.78,124.83 24.39,128.43"
         style="fill:#8ad6aa;fill-opacity:1;fill-rule:nonzero;stroke:none"
         id="path100" />
      <path
         d="m 829.434,1750.15 c 0,-17.87 -38,-13.29 -91.75,2.92 -21.793,6.57 -37.516,25.15 -39.864,47.31 -7.715,73.2 -20.711,169.66 -36.121,175.94 -15.281,6.22 -99.883,-47.7 -163.281,-90.48 -18.523,-12.5 -42.773,-13.54 -62.234,-2.51 -26.243,14.87 -57.707,33.6 -61.34,55.34 -8.504,51.03 338.418,210.91 338.418,210.91 60.246,21.02 116.172,-340.58 116.172,-399.43"
         style="fill:#feef1d;fill-opacity:1;fill-rule:nonzero;stroke:none"
         id="path102" />
      <path
         d="m 795.613,1603.74 c 0,-20.46 -44.527,-15.22 -107.539,3.35 -25.535,7.52 -43.972,28.78 -46.707,54.16 -9.054,83.8 -24.289,194.25 -42.344,201.43 -17.91,7.13 -117.058,-54.61 -191.378,-103.59 -21.7,-14.31 -50.125,-15.5 -72.938,-2.87 -30.762,17.03 -52.219,31.29 -58.633,40.07 -35.332,48.14 398.828,264.37 398.828,264.37 70.606,24.06 120.711,-389.54 120.711,-456.92"
         style="fill:#8ad6aa;fill-opacity:1;fill-rule:nonzero;stroke:none"
         id="path104" />
      <path
         d="m 129.773,1431.93 c 0,17.87 38,13.29 91.758,-2.92 21.789,-6.57 37.512,-25.14 39.856,-47.31 7.715,-73.2 20.715,-169.66 36.125,-175.93 15.281,-6.23 99.883,47.7 163.289,90.48 18.515,12.5 42.762,13.53 62.226,2.51 26.243,-14.88 57.715,-33.61 61.336,-55.35 8.508,-51.03 -338.418,-210.9 -338.418,-210.9 -60.242,-21.03 -116.172,340.57 -116.172,399.42"
         style="fill:#feef1d;fill-opacity:1;fill-rule:nonzero;stroke:none"
         id="path106" />
      <path
         d="m 214.883,1512.32 c 0,14.96 32.558,11.12 78.633,-2.45 18.679,-5.51 32.16,-21.05 34.16,-39.6 6.621,-61.29 17.762,-142.06 30.969,-147.32 13.093,-5.21 85.601,39.95 139.949,75.77 15.871,10.46 36.648,11.32 53.34,2.09 22.492,-12.44 38.171,-22.87 42.871,-29.3 25.84,-35.21 -291.653,-193.32 -291.653,-193.32 -51.629,-17.61 -88.269,284.85 -88.269,334.13"
         style="fill:#f9b5de;fill-opacity:1;fill-rule:nonzero;stroke:none"
         id="path108" />
      <path
         d="m 45.1172,1807.85 c 4.0234,-4.02 184.9488,-116.6 458.3668,-201.04 273.418,-84.43 414.145,-225.16 414.145,-225.16"
         style="fill:none;stroke:#2b3239;stroke-width:20;stroke-linecap:round;stroke-linejoin:miter;stroke-miterlimit:10;stroke-dasharray:none;stroke-opacity:1"
         id="path110" />
      <path
         d="m 4387.61,643.98 c 19.32,-83.281 -32.52,-166.46 -115.8,-185.781 -83.28,-19.328 -173.07,34.063 -192.4,117.34 -19.31,83.281 46.52,173.281 129.8,192.609 83.28,19.332 159.07,-40.886 178.4,-124.168"
         style="fill:#f9b5de;fill-opacity:1;fill-rule:nonzero;stroke:none"
         id="path112" />
      <path
         d="m 4017.97,387.629 c -10.34,46.141 -40.93,86.57 -81.13,107.82 -19.92,10.801 -41.94,16.66 -63.5,17.742 -21.63,1.039 -42.74,-2.781 -62.09,-10.242 -38.88,-14.988 -67.56,-45.187 -83.84,-79.578 -16.36,-34.652 -20.15,-72.961 -12,-109.07 8.19,-36.09 27.95,-68.5 57.45,-91.961 29.38,-23.231 68.18,-36.688 109.63,-32.309 20.64,2.16 41.25,8.539 60.15,19.469 18.83,10.93 35.86,26.332 49.02,44.98 26.76,37.219 36.81,87.051 26.31,133.149 z m 76.79,17.391 c 14.91,-65.2 6.15,-135.95 -25.93,-196.61 -15.99,-30.308 -37.65,-58.258 -64.49,-81.469 -26.73,-23.281 -58.76,-41.7105 -93.57,-52.8824 -34.73,-11.25 -72.68,-15.7578 -110.37,-11.9492 -37.65,3.8008 -74.89,15.6914 -108.06,35.0117 -33.25,19.1989 -62.54,45.6289 -85.33,76.9489 -22.92,31.27 -38.93,67.489 -47.65,104.922 -8.25,37.539 -9.37,76.969 -2.35,114.848 6.9,37.89 21.5,74.14 42.57,105.832 20.99,31.75 48.48,58.969 80.07,79.43 31.59,20.457 67.28,33.929 103.33,39.808 72.49,12.309 146.92,-7.351 202.46,-47.879 56.11,-40.289 94.77,-100.781 109.32,-166.011"
         style="fill:#feef1d;fill-opacity:1;fill-rule:nonzero;stroke:none"
         id="path114" />
      <path
         d="m 3866.6,817.582 c 12.13,-52.273 -20.42,-104.492 -72.7,-116.633 -52.29,-12.129 -104.51,20.422 -116.63,72.711 -12.13,52.27 20.42,104.5 72.69,116.629 52.29,12.133 104.5,-20.418 116.64,-72.707"
         style="fill:#8ad6aa;fill-opacity:1;fill-rule:nonzero;stroke:none"
         id="path116" />
      <path
         d="m 3514.33,664.34 c 0,0 196.94,139.89 246.64,125.172 49.69,-14.731 33.12,-500.653 84.66,-487.77 51.54,12.879 419.66,316.59 419.66,316.59"
         style="fill:none;stroke:#2b3239;stroke-width:20;stroke-linecap:round;stroke-linejoin:miter;stroke-miterlimit:10;stroke-dasharray:none;stroke-opacity:1"
         id="path118" />
      <path
         d="M 2673.95,191.02 C 2681.9,84.1211 2780.38,4.28906 2893.9,12.75 c 113.52,8.4492 199.09,101.969 191.13,208.891 -7.96,106.91 -106.45,186.73 -219.96,178.281 -113.52,-8.461 -199.08,-101.981 -191.12,-208.902"
         style="fill:#f9b5de;fill-opacity:1;fill-rule:nonzero;stroke:none"
         id="path120" />
      <path
         d="m 2608.61,663.461 c 9.92,-133.012 132.43,-232.309 273.66,-221.789 141.23,10.508 247.69,126.859 237.79,259.879 -9.9,133.019 -132.42,232.308 -273.65,221.808 -141.23,-10.519 -247.7,-126.879 -237.8,-259.898"
         style="fill:#feef1d;fill-opacity:1;fill-rule:nonzero;stroke:none"
         id="path122" />
      <path
         d="m 2800.28,361.922 c 2.62,-35.152 -23.76,-65.762 -58.9,-68.383 -35.15,-2.617 -65.76,23.75 -68.38,58.91 -2.62,35.141 23.75,65.762 58.9,68.383 35.15,2.609 65.77,-23.762 68.38,-58.91"
         style="fill:#8ad6aa;fill-opacity:1;fill-rule:nonzero;stroke:none"
         id="path124" />
      <path
         d="m 3077.37,876.512 c 2.62,-35.153 -23.75,-65.762 -58.89,-68.383 -35.16,-2.617 -65.77,23.762 -68.39,58.91 -2.62,35.141 23.76,65.762 58.9,68.383 35.15,2.609 65.77,-23.762 68.38,-58.91"
         style="fill:#8ad6aa;fill-opacity:1;fill-rule:nonzero;stroke:none"
         id="path126" />
      <path
         d="m 2864.34,682.512 c 0,0 312.06,-48.782 368.74,-344.34"
         style="fill:none;stroke:#2b3239;stroke-width:20;stroke-linecap:round;stroke-linejoin:miter;stroke-miterlimit:10;stroke-dasharray:none;stroke-opacity:1"
         id="path128" />
      <path
         d="m 3149.18,1437.27 c -18.11,-32.2 -447.3,-16.1 -489.6,0 -42.3,16.1 -39.3,518.4 -39.3,518.4 12.1,32.2 477.5,29 501.7,12.9 24.2,-16.1 45.3,-499.1 27.2,-531.3 z m 88.2,643.6 c -36.7,23 -744.5,27.6 -762.8,-18.4 0,0 -4.6,-716.9 59.7,-739.9 64.29,-22.9 716.9,-45.9 744.5,0 27.6,46 -4.6,735.4 -41.4,758.3"
         style="fill:#feef1d;fill-opacity:1;fill-rule:nonzero;stroke:none"
         id="path130" />
      <path
         d="m 2979.98,1591.01 c -7.01,-12.47 -173.26,-6.24 -189.65,0 -16.38,6.24 -15.22,200.8 -15.22,200.8 4.68,12.47 184.96,11.23 194.33,5 9.38,-6.24 17.54,-193.33 10.54,-205.8"
         style="fill:#f9b5de;fill-opacity:1;fill-rule:nonzero;stroke:none"
         id="path132" />
      <path
         d="m 2561.76,1079.98 c 8.52,17.06 405.15,443.53 405.15,443.53"
         style="fill:none;stroke:#2b3239;stroke-width:20;stroke-linecap:round;stroke-linejoin:miter;stroke-miterlimit:10;stroke-dasharray:none;stroke-opacity:1"
         id="path134" />
      <path
         d="m 2733.03,1848.37 c 8.52,17.06 405.15,443.54 405.15,443.54"
         style="fill:none;stroke:#2b3239;stroke-width:20;stroke-linecap:round;stroke-linejoin:miter;stroke-miterlimit:10;stroke-dasharray:none;stroke-opacity:1"
         id="path136" />
    </g>
  </g>
</svg>
